<svg width="75" height="75" viewBox="0 0 75 75" fill="none" xmlns="http://www.w3.org/2000/svg">
<path d="M61.8057 19.3807L51.3321 8.90855C51.1163 8.69275 50.8236 8.57144 50.5183 8.57144H16.3352C14.4313 8.57144 12.8823 10.1204 12.8823 12.0243V14.2185C7.22829 16.4363 3.21436 21.9472 3.21436 28.3782C3.21436 29.0138 3.72975 29.5292 4.3653 29.5292H18.4174C19.0529 29.5292 19.5683 29.0138 19.5683 28.3782V14.3262C19.5683 13.6906 19.0529 13.1752 18.4174 13.1752C17.3081 13.1752 16.2266 13.2957 15.1842 13.5225V12.0243C15.1842 11.3897 15.7005 10.8733 16.3352 10.8733H49.3674V17.8941C49.3674 19.798 50.9163 21.347 52.8202 21.347H59.841V64.0472C59.841 64.6818 59.3247 65.1981 58.6901 65.1981H16.3352C15.7005 65.1981 15.1842 64.6818 15.1842 64.0472V54.1873C15.1842 53.5518 14.6688 53.0364 14.0333 53.0364C13.3977 53.0364 12.8823 53.5518 12.8823 54.1873V64.0472C12.8823 65.9511 14.4313 67.5 16.3352 67.5H58.6901C60.594 67.5 62.1429 65.9511 62.1429 64.0472V20.1945C62.1429 19.8893 62.0216 19.5965 61.8057 19.3807ZM17.2663 15.5281V27.2273H5.56712C6.11739 21.0297 11.0688 16.0784 17.2663 15.5281ZM52.8202 19.0451C52.1856 19.0451 51.6693 18.5288 51.6693 17.8941V12.5008L58.2145 19.0451H52.8202Z" fill="white"/>
<path d="M14.8469 49.1919C14.6329 48.9777 14.336 48.8546 14.0333 48.8546C13.7306 48.8546 13.4336 48.9777 13.2196 49.1919C13.0055 49.4059 12.8823 49.7029 12.8823 50.0056C12.8823 50.3083 13.0054 50.6052 13.2196 50.8192C13.4336 51.0334 13.7306 51.1565 14.0333 51.1565C14.336 51.1565 14.6329 51.0334 14.8469 50.8192C15.0611 50.6052 15.1842 50.3083 15.1842 50.0056C15.1842 49.7029 15.0611 49.4059 14.8469 49.1919Z" fill="white"/>
<path d="M22.5396 17.2978C21.904 17.2978 21.3886 17.8132 21.3886 18.4487V31.3497H8.48762C7.85206 31.3497 7.33667 31.8651 7.33667 32.5007C7.33667 40.8836 14.1566 47.7037 22.5396 47.7037C30.9225 47.7037 37.7425 40.8836 37.7425 32.5007C37.7425 24.1177 30.9225 17.2978 22.5396 17.2978ZM23.6905 19.6507C26.3849 19.8898 28.8434 20.9614 30.8075 22.6052L23.6905 29.7221V19.6507ZM22.5396 45.4018C15.8138 45.4018 10.2734 40.2284 9.68955 33.6516H22.5396C22.8572 33.6516 23.1447 33.5229 23.353 33.3149C23.3532 33.3147 23.3533 33.3147 23.3535 33.3145L32.4355 24.2326C34.3105 26.4732 35.4407 29.3574 35.4407 32.5007C35.4407 39.6143 29.6532 45.4018 22.5396 45.4018Z" fill="white"/>
<path d="M53.6343 44.8959C51.7304 44.8959 50.1814 46.4449 50.1814 48.3488C50.1814 48.826 50.2788 49.2807 50.4545 49.6945L43.8236 56.3254C43.3679 56.1034 42.8564 55.9785 42.3164 55.9785C41.7892 55.9785 41.2894 56.0978 40.842 56.3099L36.4387 51.9066C36.5914 51.5171 36.6761 51.0937 36.6761 50.6506C36.6761 48.7467 35.1271 47.1977 33.2232 47.1977C31.3193 47.1977 29.7704 48.7467 29.7704 50.6506C29.7704 51.1664 29.8849 51.6558 30.0886 52.0958L25.8652 56.3192C25.4153 56.104 24.9119 55.9833 24.3808 55.9833C22.4769 55.9833 20.928 57.5322 20.928 59.4361C20.928 61.34 22.4769 62.8889 24.3808 62.8889C26.2847 62.8889 27.8337 61.34 27.8337 59.4361C27.8337 58.9024 27.7119 58.3967 27.4948 57.9452L31.6946 53.7453C32.1558 53.9742 32.6747 54.1034 33.2234 54.1034C33.8432 54.1034 34.4248 53.9385 34.9281 53.6514L39.2072 57.9305C38.9872 58.3846 38.8636 58.8938 38.8636 59.4314C38.8636 61.3353 40.4125 62.8842 42.3164 62.8842C44.2203 62.8842 45.7693 61.3353 45.7693 59.4314C45.7693 58.9068 45.6512 58.4093 45.4409 57.9637L52.0099 51.3947C52.4944 51.6541 53.0474 51.8016 53.6343 51.8016C55.5382 51.8016 57.0871 50.2527 57.0871 48.3488C57.0871 46.4449 55.5382 44.8959 53.6343 44.8959ZM24.3807 60.5872C23.7461 60.5872 23.2298 60.0708 23.2298 59.4362C23.2298 58.8016 23.7461 58.2853 24.3807 58.2853C24.6897 58.2853 24.97 58.4083 25.1769 58.6072C25.1815 58.612 25.1856 58.6172 25.1903 58.6219C25.1958 58.6274 25.2018 58.632 25.2074 58.6373C25.4077 58.8445 25.5317 59.126 25.5317 59.4362C25.5317 60.0707 25.0153 60.5872 24.3807 60.5872ZM33.2232 51.8015C32.5886 51.8015 32.0723 51.2852 32.0723 50.6506C32.0723 50.0159 32.5886 49.4996 33.2232 49.4996C33.8579 49.4996 34.3742 50.0159 34.3742 50.6506C34.3742 51.2852 33.8579 51.8015 33.2232 51.8015ZM42.3162 60.5823C41.6815 60.5823 41.1652 60.066 41.1652 59.4314C41.1652 58.7967 41.6815 58.2804 42.3162 58.2804C42.9508 58.2804 43.4671 58.7967 43.4671 59.4314C43.4671 60.066 42.9508 60.5823 42.3162 60.5823ZM53.634 49.4996C52.9994 49.4996 52.4831 48.9833 52.4831 48.3487C52.4831 47.714 52.9995 47.1977 53.634 47.1977C54.2687 47.1977 54.785 47.714 54.785 48.3487C54.785 48.9833 54.2687 49.4996 53.634 49.4996Z" fill="white"/>
<path d="M47.8813 35.6187H41.8067C41.1712 35.6187 40.6558 36.1341 40.6558 36.7697C40.6558 37.4052 41.171 37.9206 41.8067 37.9206H47.8813C48.5169 37.9206 49.0322 37.4052 49.0322 36.7697C49.0322 36.1341 48.5169 35.6187 47.8813 35.6187Z" fill="white"/>
<path d="M53.9353 35.9559C53.7213 35.7419 53.4243 35.6187 53.1217 35.6187C52.819 35.6187 52.522 35.7417 52.3079 35.9559C52.0939 36.17 51.9707 36.467 51.9707 36.7697C51.9707 37.0724 52.0937 37.3693 52.3079 37.5833C52.522 37.7973 52.8178 37.9206 53.1217 37.9206C53.4243 37.9206 53.7213 37.7975 53.9353 37.5833C54.1493 37.3693 54.2726 37.0724 54.2726 36.7697C54.2726 36.467 54.1494 36.17 53.9353 35.9559Z" fill="white"/>
<path d="M55.866 24.5696H41.8067C41.1712 24.5696 40.6558 25.085 40.6558 25.7206C40.6558 26.3561 41.171 26.8715 41.8067 26.8715H55.866C56.5016 26.8715 57.017 26.3561 57.017 25.7206C57.017 25.085 56.5016 24.5696 55.866 24.5696Z" fill="white"/>
<path d="M55.866 30.0942H41.8067C41.1712 30.0942 40.6558 30.6096 40.6558 31.2451C40.6558 31.8807 41.171 32.3961 41.8067 32.3961H55.866C56.5016 32.3961 57.017 31.8807 57.017 31.2451C57.017 30.6096 56.5016 30.0942 55.866 30.0942Z" fill="white"/>
</svg>
