<svg width="75" height="75" viewBox="0 0 75 75" fill="none" xmlns="http://www.w3.org/2000/svg">
<path d="M16.9643 9.57144H14.8572V11.6786H16.9643V9.57144Z" fill="#232323"/>
<path d="M21.1787 9.57144H19.0715V11.6786H21.1787V9.57144Z" fill="#232323"/>
<path d="M12.75 9.57144H10.6428V11.6786H12.75V9.57144Z" fill="#232323"/>
<path d="M65.4285 5.35715H10.6428C8.31528 5.35715 6.42847 7.24396 6.42847 9.57143V64.3571C6.42847 66.6846 8.31528 68.5714 10.6428 68.5714H65.4285C67.7559 68.5714 69.6428 66.6846 69.6428 64.3571V9.57143C69.6428 7.24396 67.7559 5.35715 65.4285 5.35715ZM67.5356 64.3571C67.5356 65.5209 66.5923 66.4643 65.4285 66.4643H10.6428C9.47895 66.4643 8.53561 65.5209 8.53561 64.3571V15.8929H67.5356V64.3571ZM67.5356 13.7857H8.53561V9.57143C8.53561 8.40763 9.47895 7.46429 10.6428 7.46429H65.4285C66.5923 7.46429 67.5356 8.40763 67.5356 9.57143V13.7857Z" fill="#232323"/>
<path d="M59.1071 36.9643H55.4375C55.0059 35.1588 54.2928 33.4327 53.324 31.8492L55.9158 29.2585C56.3271 28.847 56.3271 28.1801 55.9158 27.7687L51.4455 23.2984C51.0275 22.9032 50.3738 22.9032 49.9558 23.2984L47.365 25.8902C45.7815 24.9214 44.0554 24.2083 42.2499 23.7767V20.1071C42.2499 19.5253 41.7782 19.0536 41.1964 19.0536H34.8749C34.2931 19.0536 33.8214 19.5253 33.8214 20.1071V23.7767C32.0159 24.2083 30.2898 24.9214 28.7063 25.8902L26.1155 23.2984C25.7041 22.8871 25.0372 22.8871 24.6258 23.2984L20.1555 27.7687C19.7442 28.1801 19.7442 28.847 20.1555 29.2585L22.7473 31.8492C21.7785 33.4327 21.0654 35.1588 20.6338 36.9643H16.9642C16.3824 36.9643 15.9106 37.436 15.9106 38.0178V44.3393C15.9106 44.9211 16.3824 45.3928 16.9642 45.3928H20.6338C21.0654 47.1983 21.7785 48.9244 22.7473 50.5079L20.1555 53.0987C19.7442 53.5101 19.7442 54.177 20.1555 54.5884L24.6258 59.0587C25.0438 59.4539 25.6975 59.4539 26.1155 59.0587L28.7063 56.4669C30.2898 57.4357 32.0159 58.1488 33.8214 58.5804V62.25C33.8214 62.8318 34.2931 63.3036 34.8749 63.3036H41.1964C41.7782 63.3036 42.2499 62.8318 42.2499 62.25V58.5804C44.0554 58.1488 45.7815 57.4357 47.365 56.4669L49.9558 59.0587C50.3672 59.47 51.0341 59.47 51.4455 59.0587L55.9158 54.5884C56.3271 54.177 56.3271 53.5101 55.9158 53.0987L53.324 50.5079C54.2928 48.9244 55.0059 47.1983 55.4375 45.3928H59.1071C59.6889 45.3928 60.1606 44.9211 60.1606 44.3393V38.0178C60.1606 37.436 59.6889 36.9643 59.1071 36.9643ZM58.0535 43.2857H54.5862C54.0805 43.2858 53.6462 43.6454 53.5516 44.1423C53.1535 46.2619 52.3213 48.2765 51.1073 50.0591C50.8228 50.4771 50.8755 51.0383 51.2327 51.3961L53.6812 53.8435L50.7006 56.8241L48.2553 54.3756C47.8975 54.0184 47.3363 53.9658 46.9183 54.2502C45.1357 55.4642 43.1211 56.2964 41.0014 56.6945C40.5046 56.7891 40.145 57.2234 40.1449 57.7291V61.1964H35.9285V57.7291C35.9284 57.2234 35.5688 56.7891 35.0719 56.6945C32.9523 56.2964 30.9377 55.4642 29.1551 54.2502C28.7371 53.9658 28.1759 54.0184 27.8181 54.3756L25.3707 56.8241L22.3901 53.8435L24.8386 51.3982C25.1958 51.0404 25.2484 50.4792 24.964 50.0612C23.75 48.2786 22.9178 46.264 22.5197 44.1444C22.4261 43.6467 21.9915 43.2861 21.4851 43.2857H18.0178V39.0714H21.4851C21.9908 39.0713 22.4251 38.7118 22.5197 38.2149C22.9178 36.0952 23.75 34.0806 24.964 32.298C25.2484 31.88 25.1958 31.3188 24.8386 30.961L22.3901 28.5136L25.3707 25.533L27.816 27.9815C28.1738 28.3387 28.735 28.3914 29.153 28.1069C30.9356 26.8929 32.9502 26.0607 35.0698 25.6626C35.5675 25.569 35.9281 25.1344 35.9285 24.628V21.1607H40.1428V24.628C40.1429 25.1337 40.5025 25.5681 40.9993 25.6626C43.119 26.0607 45.1336 26.8929 46.9162 28.1069C47.3342 28.3914 47.8954 28.3387 48.2532 27.9815L50.7006 25.533L53.6812 28.5136L51.2327 30.9589C50.8755 31.3167 50.8228 31.8779 51.1073 32.2959C52.3213 34.0785 53.1535 36.0931 53.5516 38.2128C53.6462 38.7096 54.0805 39.0692 54.5862 39.0693H58.0535V43.2857Z" fill="#232323"/>
<path d="M38.0358 27.4821C30.4714 27.4821 24.3394 33.6142 24.3394 41.1786C24.3394 48.743 30.4714 54.875 38.0358 54.875C45.6002 54.875 51.7322 48.743 51.7322 41.1786C51.7235 33.6179 45.5965 27.4908 38.0358 27.4821ZM38.0358 52.7679C31.6352 52.7679 26.4465 47.5792 26.4465 41.1786C26.4465 34.778 31.6352 29.5893 38.0358 29.5893C44.4364 29.5893 49.6251 34.778 49.6251 41.1786C49.6176 47.576 44.4332 52.7604 38.0358 52.7679Z" fill="#232323"/>
<path d="M34.4535 38.8607L33.1893 37.175L28.975 40.3357C28.5094 40.6848 28.4151 41.3452 28.7643 41.8107C28.8242 41.8905 28.8952 41.9615 28.975 42.0214L33.1893 45.1821L34.4535 43.4964L31.3634 41.1786L34.4535 38.8607Z" fill="#4DAE18"/>
<path d="M47.3072 40.5464C47.2473 40.4666 47.1763 40.3956 47.0965 40.3357L42.8822 37.175L41.6179 38.8607L44.708 41.1786L41.6179 43.4964L42.8822 45.1821L47.0965 42.0214C47.562 41.6723 47.6563 41.012 47.3072 40.5464Z" fill="#4DAE18"/>
<path d="M39.1646 35.5253L34.9492 46.0598L36.9055 46.8426L41.1209 36.3081L39.1646 35.5253Z" fill="#4DAE18"/>
</svg>
