<svg width="75" height="75" viewBox="0 0 75 75" fill="none" xmlns="http://www.w3.org/2000/svg">
<path d="M32.0714 20.439C31.8254 19.8153 31.1207 19.5091 30.4969 19.7555C26.9764 21.1449 23.9718 23.5295 21.8081 26.6518C19.5925 29.8486 18.4216 33.6015 18.4216 37.5047C18.4216 38.1751 18.9651 38.7184 19.6353 38.7184C20.3054 38.7184 20.8489 38.175 20.8489 37.5047C20.8489 30.6209 24.9857 24.5402 31.3879 22.0136C32.0116 21.7674 32.3174 21.0626 32.0714 20.439Z" fill="#232323"/>
<path d="M45.4935 36.3025C44.8233 36.3025 44.2799 36.8459 44.2799 37.5161C44.2799 41.2637 41.2309 44.3128 37.4832 44.3128C33.7355 44.3128 30.6865 41.2638 30.6865 37.5161C30.6865 33.7685 33.7355 30.7194 37.4832 30.7194C38.1535 30.7194 38.6969 30.176 38.6969 29.5058C38.6969 28.8355 38.1533 28.2922 37.4832 28.2922C32.3971 28.2922 28.2593 32.43 28.2593 37.5161C28.2593 42.6022 32.3972 46.74 37.4832 46.74C42.5692 46.74 46.7072 42.6022 46.7072 37.5161C46.7072 36.8459 46.1638 36.3025 45.4935 36.3025Z" fill="#4DAE18"/>
<path d="M49.9927 36.2566C49.3225 36.2566 48.7791 36.8 48.7791 37.4702V37.516C48.7791 38.1863 49.3226 38.7296 49.9927 38.7296C50.6628 38.7296 51.2063 38.1862 51.2063 37.516V37.4702C51.2063 36.8 50.6628 36.2566 49.9927 36.2566Z" fill="#4DAE18"/>
<path d="M45.0815 47.3254C44.8559 47.0985 44.5427 46.9698 44.2235 46.9698C43.9043 46.9699 43.5913 47.0986 43.3654 47.3254C43.1396 47.5512 43.0098 47.8631 43.0098 48.1836C43.0098 48.5028 43.1395 48.8159 43.3654 49.0417C43.5913 49.2675 43.9031 49.3961 44.2235 49.3961C44.5427 49.3961 44.8559 49.2675 45.0815 49.0417C45.3073 48.8159 45.4373 48.5028 45.4373 48.1836C45.4373 47.863 45.3074 47.5512 45.0815 47.3254Z" fill="#232323"/>
<path d="M64.4425 50.4356C63.7453 50.4356 63.0884 50.61 62.5119 50.9166L58.9201 47.3248C58.6924 47.0973 58.3838 46.9693 58.0619 46.9693H49.2119C48.5417 46.9693 47.9983 47.5127 47.9983 48.183C47.9983 48.8533 48.5418 49.3966 49.2119 49.3966H57.559L60.7958 52.6333C60.4899 53.2094 60.3158 53.8655 60.3158 54.5619C60.3158 56.8373 62.1669 58.6884 64.4424 58.6884C66.7178 58.6884 68.5689 56.8373 68.5689 54.5619C68.569 52.2865 66.7178 50.4356 64.4425 50.4356ZM64.4425 56.2612C63.5055 56.2612 62.7434 55.499 62.7434 54.5621C62.7434 53.6251 63.5056 52.863 64.4425 52.863C65.3794 52.863 66.1416 53.6252 66.1416 54.5621C66.1416 55.499 65.3793 56.2612 64.4425 56.2612Z" fill="#232323"/>
<path d="M64.4425 16.3167C62.167 16.3167 60.3159 18.1678 60.3159 20.4432C60.3159 21.1396 60.49 21.7958 60.796 22.3718L57.5592 25.6086H44.2787C42.5915 24.6439 40.6967 24.0309 38.7102 23.8507V21.6568H51.5082C51.9502 21.6568 52.3573 21.4165 52.5708 21.0295L56.2591 14.3455C56.7594 14.5613 57.3101 14.6815 57.8888 14.6815C60.1642 14.6815 62.0153 12.8304 62.0153 10.555C62.0153 8.27966 60.1642 6.42856 57.8888 6.42856C55.6134 6.42856 53.7623 8.27966 53.7623 10.5551C53.7623 11.3508 53.9892 12.094 54.3809 12.7249L50.7917 19.2294H38.7102V7.64729C38.7102 6.97693 38.1667 6.43366 37.4966 6.43366H32.0544C31.3841 6.43366 30.8407 6.97705 30.8407 7.64729V11.403C28.3331 12.0383 25.9455 13.0276 23.7206 14.3538L21.0751 11.7084C20.8474 11.4808 20.5386 11.3529 20.2166 11.3529C19.8947 11.3529 19.5859 11.4809 19.3584 11.7088L11.6871 19.3858C11.2133 19.8599 11.2135 20.6279 11.6873 21.1018L14.3298 23.7444C13.0037 25.9695 12.0144 28.357 11.3793 30.8645H7.6421C6.97187 30.8645 6.42847 31.4079 6.42847 32.0781V42.9312C6.42847 43.6015 6.97199 44.1448 7.6421 44.1448H11.3795C12.0145 46.6523 13.0039 49.0397 14.33 51.2648L11.6875 53.9074C11.2137 54.3812 11.2136 55.1493 11.6873 55.6234L19.3586 63.3004C19.5862 63.5281 19.895 63.6562 20.2168 63.6563C20.217 63.6563 20.217 63.6563 20.2171 63.6563C20.539 63.6563 20.8476 63.5283 21.0753 63.3008L23.7207 60.6555C25.9459 61.9815 28.3334 62.971 30.8407 63.6063V67.356C30.8407 68.0262 31.3838 68.5693 32.0536 68.5697H37.4957H37.4965C37.8182 68.5697 38.1269 68.4449 38.3545 68.2174C38.5822 67.9897 38.7102 67.681 38.7102 67.359V55.7204H50.7895L54.3824 62.2741C53.9898 62.9054 53.7624 63.6495 53.7624 64.4461C53.7624 66.7215 55.6135 68.5726 57.8889 68.5726C60.1643 68.5726 62.0154 66.7215 62.0154 64.4461C62.0154 62.1706 60.1642 60.3195 57.8888 60.3195C57.3115 60.3195 56.7618 60.4391 56.2625 60.6542L52.5725 53.9232C52.3595 53.5345 51.9515 53.2929 51.5083 53.2929H38.71V50.0253C38.71 49.355 38.1665 48.8117 37.4964 48.8117C31.2615 48.8117 26.1893 43.7394 26.1893 37.5046C26.1893 31.3453 31.1398 26.3212 37.2707 26.2004C37.3398 26.2126 37.4105 26.2202 37.4832 26.2202C42.1806 26.2202 46.4366 29.1769 48.0739 33.5774C48.2557 34.0661 48.7189 34.3682 49.2114 34.3682C49.352 34.3682 49.4951 34.3436 49.6345 34.2918C50.2628 34.058 50.5826 33.3594 50.3488 32.7311C49.6853 30.9475 48.6662 29.3608 47.3926 28.0358H58.0619C58.3837 28.0358 58.6924 27.9079 58.9201 27.6803L62.5119 24.0886C63.0884 24.3952 63.7453 24.5696 64.4425 24.5696C66.7179 24.5696 68.569 22.7185 68.569 20.4431C68.569 18.1678 66.7178 16.3167 64.4425 16.3167ZM57.8888 8.85595C58.8258 8.85595 59.5879 9.61819 59.5879 10.5551C59.5879 11.492 58.8257 12.2542 57.8888 12.2542C56.9519 12.2542 56.1896 11.492 56.1896 10.5551C56.1896 9.61819 56.9518 8.85595 57.8888 8.85595ZM57.8888 62.7472C58.8258 62.7472 59.5879 63.5094 59.5879 64.4463C59.5879 65.3832 58.8256 66.1454 57.8888 66.1454C56.9518 66.1454 56.1896 65.3832 56.1896 64.4463C56.1896 63.5094 56.9518 62.7472 57.8888 62.7472ZM36.2828 23.8234C29.2762 24.44 23.7619 30.3406 23.7619 37.5047C23.7619 44.6688 29.276 50.5694 36.2827 51.186V66.1448L33.2679 66.1431V62.6441C33.2679 62.0721 32.8684 61.5777 32.3091 61.4576C29.4177 60.8364 26.6899 59.706 24.2014 58.0978C23.721 57.7874 23.0891 57.8544 22.6844 58.2589L20.2172 60.7263L14.2617 54.7662L16.7268 52.3011C17.1312 51.8966 17.1985 51.2647 16.8879 50.7842C15.2798 48.2956 14.1494 45.5679 13.5285 42.6765C13.4083 42.1172 12.9139 41.7178 12.3419 41.7178H8.85573V33.2921H12.3418C12.9139 33.2921 13.4082 32.8926 13.5283 32.3334C14.1494 29.442 15.2797 26.7143 16.8878 24.2257C17.1984 23.7453 17.1311 23.1133 16.7267 22.7088L14.2616 20.2436L20.2171 14.2836L22.6843 16.7509C23.089 17.1556 23.7208 17.2225 24.2012 16.9121C26.6897 15.304 29.4175 14.1735 32.309 13.5523C32.8683 13.4322 33.2678 12.9378 33.2678 12.3658V8.86105H36.2826V23.8234H36.2828ZM64.4425 22.1422C63.5054 22.1422 62.7433 21.38 62.7433 20.4431C62.7433 19.5062 63.5056 18.7439 64.4425 18.7439C65.3793 18.7439 66.1416 19.5062 66.1416 20.4431C66.1416 21.38 65.3793 22.1422 64.4425 22.1422Z" fill="#232323"/>
<path d="M64.4424 33.3934C62.5892 33.3934 61.0178 34.6213 60.4983 36.3063H56.9175C56.2473 36.3063 55.7039 36.8497 55.7039 37.5199C55.7039 38.1901 56.2474 38.7335 56.9175 38.7335H60.4982C61.0177 40.4183 62.5891 41.6464 64.4423 41.6464C66.7177 41.6464 68.5688 39.7953 68.5688 37.5199C68.5689 35.2445 66.7177 33.3934 64.4424 33.3934ZM64.4424 39.219C63.5054 39.219 62.7433 38.4568 62.7433 37.5199C62.7433 36.583 63.5055 35.8208 64.4424 35.8208C65.3793 35.8208 66.1415 36.583 66.1415 37.5199C66.1415 38.4568 65.3792 39.219 64.4424 39.219Z" fill="#4DAE18"/>
</svg>
