<svg width="75" height="75" viewBox="0 0 75 75" fill="none" xmlns="http://www.w3.org/2000/svg">
<path d="M63.2812 1.17188H46.875C44.9367 1.17188 43.3594 2.74922 43.3594 4.6875V7.03125C40.7742 7.03125 38.6719 9.13359 38.6719 11.7188C38.6719 14.3039 40.7742 16.4062 43.3594 16.4062V22.2656H52.7344V19.9219C52.7344 18.6293 53.7855 17.5781 55.0781 17.5781C56.3707 17.5781 57.4219 18.6293 57.4219 19.9219V22.2656H63.2812C65.2195 22.2656 66.7969 20.6883 66.7969 18.75V4.6875C66.7969 2.74922 65.2195 1.17188 63.2812 1.17188ZM64.4531 18.75C64.4531 19.3957 63.9281 19.9219 63.2812 19.9219H59.7656C59.7656 17.3367 57.6633 15.2344 55.0781 15.2344C52.493 15.2344 50.3906 17.3367 50.3906 19.9219H45.7031V14.0625H43.3594C42.0668 14.0625 41.0156 13.0113 41.0156 11.7188C41.0156 10.4262 42.0668 9.375 43.3594 9.375H45.7031V4.6875C45.7031 4.0418 46.2281 3.51562 46.875 3.51562H63.2812C63.9281 3.51562 64.4531 4.0418 64.4531 4.6875V18.75Z" fill="#4DAE18"/>
<path d="M43.3594 24.6094C40.7742 24.6094 38.6719 26.7117 38.6719 29.2969H33.9844V23.4375H31.6406C30.348 23.4375 29.2969 22.3863 29.2969 21.0938C29.2969 19.8012 30.348 18.75 31.6406 18.75H33.9844V8.20312H30.8426C18.3598 8.20312 8.20312 18.3598 8.20312 30.8426C8.20312 37.6605 11.2301 44.0473 16.507 48.3645L21.0938 52.118V55.2949C19.7332 55.7801 18.75 57.0691 18.75 58.5949C18.75 60.2156 19.8574 61.5703 21.3516 61.9746C21.1887 62.3789 21.0938 62.8184 21.0938 63.2812C21.0938 64.8305 22.1074 66.1336 23.5008 66.6012C23.9859 70.6652 27.4488 73.8281 31.6406 73.8281C35.8324 73.8281 39.2953 70.6652 39.7805 66.6012C41.1738 66.1336 42.1875 64.8305 42.1875 63.2812C42.1875 62.8184 42.0926 62.3789 41.9297 61.9734C43.4238 61.568 44.5312 60.2145 44.5312 58.5938C44.5312 57.068 43.548 55.7789 42.1875 55.2937V52.1168L46.7742 48.3633C52.0512 44.0473 55.0781 37.6605 55.0781 30.8426V29.2969H48.0469C48.0469 26.7117 45.9445 24.6094 43.3594 24.6094V24.6094ZM30.8426 10.5469H31.6406V16.4062C29.0555 16.4062 26.9531 18.5086 26.9531 21.0938C26.9531 23.6789 29.0555 25.7812 31.6406 25.7812V29.2969H26.9531C26.9531 26.7117 24.8508 24.6094 22.2656 24.6094C19.6805 24.6094 17.5781 26.7117 17.5781 29.2969H10.6055C11.3977 18.825 20.1715 10.5469 30.8426 10.5469ZM17.9906 46.5504C13.466 42.8484 10.7871 37.4508 10.5633 31.6406H19.9219V29.2969C19.9219 28.0043 20.973 26.9531 22.2656 26.9531C23.5582 26.9531 24.6094 28.0043 24.6094 29.2969V31.6406H31.6406V36.3281C29.0555 36.3281 26.9531 38.4305 26.9531 41.0156C26.9531 43.6008 29.0555 45.7031 31.6406 45.7031V55.0781H23.4375V51.007L17.9906 46.5504ZM31.6406 71.4844C28.8117 71.4844 26.4445 69.4676 25.8996 66.7969H37.3816C36.8367 69.4676 34.4695 71.4844 31.6406 71.4844ZM38.6719 64.4531H24.6094C23.9625 64.4531 23.4375 63.927 23.4375 63.2812C23.4375 62.6355 23.9625 62.1094 24.6094 62.1094H38.6719C39.3187 62.1094 39.8438 62.6355 39.8438 63.2812C39.8438 63.927 39.3187 64.4531 38.6719 64.4531ZM41.0156 59.7656H38.6719H24.6094H22.2656C21.6188 59.7656 21.0938 59.2395 21.0938 58.5938C21.0938 57.948 21.6188 57.4219 22.2656 57.4219H41.0156C41.6625 57.4219 42.1875 57.948 42.1875 58.5938C42.1875 59.2395 41.6625 59.7656 41.0156 59.7656ZM45.2906 46.5504L39.8438 51.007V55.0781H33.9844V43.3594H31.6406C30.348 43.3594 29.2969 42.3082 29.2969 41.0156C29.2969 39.723 30.348 38.6719 31.6406 38.6719H33.9844V31.6406H41.0156V29.2969C41.0156 28.0043 42.0668 26.9531 43.3594 26.9531C44.652 26.9531 45.7031 28.0043 45.7031 29.2969V31.6406H52.718C52.4941 37.4508 49.8152 42.8484 45.2906 46.5504V46.5504Z" fill="#232323"/>
</svg>
