<svg width="75" height="75" viewBox="0 0 75 75" fill="none" xmlns="http://www.w3.org/2000/svg">
<path d="M67.6755 42.5586C67.0568 42.2631 65.8794 41.6428 64.9448 40.8086C64.3712 40.2967 63.6873 39.518 63.6873 38.7159V34.2937C63.6873 27.6007 61.0303 21.5753 56.9124 16.9168C52.042 11.4072 44.4093 8.57144 37.9654 8.57144C31.5565 8.57144 24.1585 11.3014 19.1132 16.815C14.8846 21.4359 12.2436 27.5507 12.2436 34.2936V38.7158C12.2436 40.1954 10.1707 41.7105 8.39576 42.5585C7.20062 43.1295 6.42847 44.3581 6.42847 45.6887V50.8449C6.42847 52.1755 7.20062 53.4042 8.39576 53.9751C10.1707 54.8231 12.2436 56.3382 12.2436 57.8178C12.2436 58.4997 12.7963 59.0525 13.4782 59.0525H19.2932C19.9751 59.0525 20.5278 58.4997 20.5278 57.8178V38.7159C20.5278 38.034 19.9751 37.4812 19.2932 37.4812H14.7129V34.2937C14.7129 28.5402 16.8143 23.269 20.2886 19.2048L20.7435 19.5523C23.3682 21.5565 26.919 21.7774 29.7896 20.1152C30.7735 19.5455 31.8257 19.0767 32.9169 18.7219C33.5653 18.511 33.9201 17.8144 33.7093 17.166C33.4984 16.5176 32.8015 16.1625 32.1533 16.3736C30.8976 16.7819 29.686 17.3218 28.5522 17.9783C26.5479 19.1387 24.0712 18.9865 22.2423 17.5898L21.9999 17.4046C26.168 13.4623 31.789 11.0411 37.9654 11.0411C44.188 11.0411 49.8474 13.4985 54.0248 17.4932L53.807 17.6595C51.9666 19.0646 49.481 19.2119 47.4748 18.0343C46.279 17.3325 45.0009 16.7625 43.676 16.3401C43.0265 16.1327 42.3318 16.4917 42.1247 17.1414C41.9175 17.7911 42.2763 18.4857 42.926 18.6928C44.0768 19.0597 45.1869 19.5547 46.225 20.1641C47.5163 20.9221 48.9466 21.2965 50.3699 21.2965C52.1156 21.2965 53.8507 20.733 55.3056 19.6221L55.7245 19.3022C59.1496 23.3531 61.218 28.586 61.218 34.2937V37.4812H56.778C56.0961 37.4812 55.5434 38.034 55.5434 38.7159V57.1224L45.1181 63.4398C44.673 63.7096 44.1625 63.8522 43.6418 63.8522H42.7424C42.7467 63.7906 42.7517 63.7291 42.7517 63.6664V61.3672C42.7517 59.9032 41.5607 58.712 40.0965 58.712H36.9459C35.4819 58.712 34.2907 59.903 34.2907 61.3672V63.6664C34.2907 65.1304 35.4817 66.3215 36.9459 66.3215H43.6417C44.6136 66.3215 45.5665 66.0553 46.3977 65.5517L57.1229 59.0525H62.4525C63.1344 59.0525 63.6872 58.4997 63.6872 57.8178C63.6872 57.0157 64.371 56.237 64.9447 55.7251C65.8793 54.891 67.0567 54.2707 67.6753 53.9751C68.8706 53.4042 69.6428 52.1755 69.6428 50.8449V45.6887C69.6428 44.3581 68.8706 43.1295 67.6755 42.5586V42.5586ZM9.46016 51.7469C9.11853 51.5837 8.89778 51.2296 8.89778 50.8449V45.6887C8.89778 45.304 9.11853 44.9499 9.46016 44.7867C10.1491 44.4575 11.2365 43.8717 12.2436 43.0493V53.4842C11.2363 52.6618 10.1491 52.076 9.46016 51.7469V51.7469ZM18.0585 39.9505V56.5832H14.7129V39.9505H18.0585ZM36.946 63.8522C36.8434 63.8522 36.7601 63.7689 36.7601 63.6664V61.3672C36.7601 61.2646 36.8434 61.1813 36.946 61.1813H40.0966C40.1992 61.1813 40.2826 61.2646 40.2826 61.3672V63.6664C40.2826 63.7689 40.1992 63.8522 40.0966 63.8522H36.946ZM58.0127 39.9505H61.218V56.5832H58.0127V39.9505ZM67.1734 50.8449C67.1734 51.2296 66.9527 51.5837 66.6111 51.7469C65.382 52.3341 64.4278 52.9407 63.6873 53.5396V42.9941C64.4278 43.593 65.382 44.1996 66.6111 44.7868C66.9527 44.95 67.1734 45.304 67.1734 45.6888V50.8449Z" fill="#232323"/>
<path d="M38.1546 52.4259C45.2022 52.4259 50.9358 46.6922 50.9358 39.6446C50.9358 32.5969 45.2022 26.8633 38.1546 26.8633C31.1069 26.8633 25.3733 32.5969 25.3733 39.6446C25.3733 42.3797 26.2627 45.0647 27.8862 47.2549V52.7718C27.8862 53.62 28.7629 54.228 29.5584 53.9263L34.7373 51.9634C35.8465 52.2703 36.9939 52.4259 38.1546 52.4259V52.4259ZM34.2506 49.5069L30.3555 50.9833V46.8771C30.3651 46.5858 30.2713 46.298 30.087 46.0667C28.6187 44.225 27.8427 42.0044 27.8427 39.6446C27.8427 33.9585 32.4687 29.3326 38.1547 29.3326C43.8406 29.3326 48.4666 33.9586 48.4666 39.6446C48.4666 45.3305 43.8406 49.9566 38.1547 49.9566C37.0986 49.9566 36.0569 49.7974 35.0585 49.4836C34.7941 49.4003 34.5095 49.4086 34.2506 49.5069V49.5069Z" fill="#4DAE18"/>
<path d="M38.2786 46.5306C38.9605 46.5306 39.5133 45.9779 39.5133 45.296V38.1786C39.5133 37.4967 38.9605 36.9439 38.2786 36.9439C37.5967 36.9439 37.0439 37.4967 37.0439 38.1786V45.296C37.0439 45.9779 37.5967 46.5306 38.2786 46.5306Z" fill="#4DAE18"/>
<path d="M37.1392 34.3314C37.3946 34.9542 38.1299 35.2555 38.7505 34.9994C39.3725 34.7424 39.6759 34.0084 39.4184 33.3869C39.161 32.7654 38.4274 32.4616 37.806 32.7189C37.1855 32.9759 36.881 33.7116 37.1392 34.3314V34.3314Z" fill="#4DAE18"/>
<path d="M37.4937 17.8278C38.5302 18.2595 39.5676 17.1312 39.068 16.1337C38.8329 15.6644 38.3038 15.3898 37.7845 15.4677C37.2615 15.5462 36.8423 15.9579 36.75 16.4773C36.6503 17.0381 36.9665 17.6116 37.4937 17.8278V17.8278Z" fill="#232323"/>
</svg>
