<svg width="75" height="75" viewBox="0 0 75 75" fill="none" xmlns="http://www.w3.org/2000/svg">
<path d="M39.4402 35.5616C39.0065 35.1279 38.3045 35.1279 37.8708 35.5616C37.4382 35.9942 37.4382 36.6962 37.8708 37.1299C38.3045 37.5624 39.0065 37.5624 39.4402 37.1299C39.8727 36.6962 39.8727 35.9942 39.4402 35.5616Z" fill="#4DAE18"/>
<path d="M53.5557 21.4448C51.3886 19.2777 47.8802 19.2776 45.7129 21.4448C43.5514 23.6063 43.5513 27.1244 45.7133 29.2877C47.8756 31.4487 51.3937 31.4496 53.5557 29.2875C55.7227 27.1205 55.7232 23.6121 53.5557 21.4448ZM51.9873 27.7189C50.6904 29.0159 48.5793 29.0159 47.2818 27.7191C45.9847 26.4212 45.9846 24.3102 47.2816 23.0133C48.5818 21.7131 50.6868 21.7129 51.9873 23.0133C53.2875 24.3134 53.2877 26.4186 51.9873 27.7189Z" fill="#4DAE18"/>
<path d="M66.1037 8.89631C65.8859 8.67859 65.5887 8.56058 65.2797 8.57223C65.0289 8.58121 59.0581 8.82122 51.9603 11.3299C46.2729 13.338 41.5322 16.2132 37.8701 19.8754C37.0494 20.6961 36.2509 21.5663 35.4868 22.4703C31.8658 20.3388 28.9642 21.0072 27.1298 21.9888C22.9063 24.2492 20.292 30.3865 20.292 34.7763C20.2923 35.2249 20.5626 35.6294 20.977 35.8009C21.1142 35.8578 21.2584 35.8855 21.4012 35.8855C21.6899 35.8855 21.9735 35.7727 22.1857 35.5606C24.4131 33.3332 27.1604 33.4725 28.0579 33.5905L28.4463 33.9789C27.6819 35.7978 27.0662 37.6066 26.6145 39.3657C26.4515 40.0023 26.5065 40.676 26.7489 41.2922C25.681 41.7843 24.6508 42.5069 23.7537 43.404C20.8988 46.259 20.3191 53.2169 20.2958 53.5117C20.2703 53.8352 20.3876 54.1537 20.6171 54.3832C20.8259 54.5919 21.1084 54.708 21.4012 54.708C21.4303 54.708 21.4594 54.7069 21.4886 54.7046C21.7834 54.6814 28.7415 54.1017 31.5964 51.2468C32.4931 50.35 33.2156 49.3199 33.7077 48.2523C34.3601 48.5088 35.0315 48.5404 35.6353 48.3857C37.3937 47.9342 39.2022 47.3186 41.0214 46.5541L41.4098 46.9425C41.5277 47.8401 41.667 50.5875 39.4397 52.8147C39.1226 53.1319 39.0276 53.6089 39.1993 54.0233C39.3709 54.4378 39.7753 54.7079 40.2239 54.7079C44.6138 54.7079 50.751 52.0937 53.0113 47.8701C53.993 46.036 54.6613 43.1343 52.5299 39.5132C53.4335 38.7495 54.3038 37.9509 55.1247 37.13C58.787 33.4677 61.662 28.7271 63.6701 23.04C66.1789 15.942 66.4188 9.97103 66.4278 9.72037C66.4389 9.4126 66.3215 9.11414 66.1037 8.89631ZM22.7717 32.3908C23.4607 29.0565 25.4619 25.3977 28.1769 23.9445C29.9913 22.9736 31.9745 23.0688 34.0831 24.223C32.2867 26.5856 30.725 29.131 29.4232 31.8189C29.4067 31.8087 29.2071 31.5577 28.8362 31.4741C28.6837 31.4396 25.7491 30.8084 22.7717 32.3908ZM30.0279 49.6782C28.5029 51.2032 24.9255 52.0075 22.6644 52.3359C22.9929 50.0747 23.7973 46.4974 25.3222 44.9724C26.1762 44.1184 27.1664 43.4709 28.1617 43.1063L31.8941 46.8386C31.5294 47.8339 30.882 48.8241 30.0279 49.6782ZM35.0843 46.2369C34.7634 46.3191 34.3916 46.1985 34.1152 45.9225C32.6803 44.4877 32.119 43.9263 31.9429 43.7503C31.6199 43.4274 30.8279 42.6353 29.0785 40.8858C28.8019 40.6087 28.6813 40.237 28.7632 39.9166C29.1185 38.5331 29.5831 37.1137 30.148 35.6806L39.3198 44.8523C37.8865 45.4174 36.4673 45.8819 35.0843 46.2369ZM51.0559 46.8234C49.6027 49.5384 45.944 51.5397 42.6098 52.2285C43.6729 50.228 43.9072 47.6814 43.5188 46.1372C43.4287 45.7785 43.1947 45.5982 43.1816 45.577C45.8693 44.2753 48.4145 42.7135 50.7774 40.9171C51.9316 43.026 52.0267 45.0094 51.0559 46.8234ZM53.5565 35.5615C52.557 36.5608 51.4809 37.5263 50.3578 38.431C47.658 40.6048 44.6865 42.4461 41.5162 43.9119L31.0885 33.4844C32.5542 30.3139 34.3956 27.3424 36.5692 24.6429C37.4747 23.5191 38.44 22.4428 39.439 21.4439C42.7247 18.1581 46.9653 15.5431 52.0463 13.6607L61.3397 22.9541C59.4575 28.035 56.8425 32.2755 53.5565 35.5615ZM62.1377 20.6149L54.3855 12.8627C58.6091 11.5508 62.2834 11.0596 64.1174 10.883C63.9408 12.7174 63.4494 16.3917 62.1377 20.6149Z" fill="#232323"/>
<path d="M36.3023 54.3829C35.869 53.9497 35.1667 53.95 34.7337 54.3831L31.5971 57.5207C31.1641 57.9539 31.1643 58.6562 31.5974 59.0892C32.0307 59.5222 32.733 59.5222 33.166 59.089L36.3025 55.9514C36.7355 55.5181 36.7354 54.8158 36.3023 54.3829Z" fill="#232323"/>
<path d="M20.6176 38.6981C20.1846 38.2649 19.4824 38.2649 19.0491 38.6979L15.9114 41.8345C15.4782 42.2674 15.4781 42.9697 15.9111 43.4029C16.344 43.8359 17.0461 43.8364 17.4796 43.4032L20.6172 40.2666C21.0505 39.8336 21.0506 39.1314 20.6176 38.6981Z" fill="#232323"/>
<path d="M28.46 55.9523C28.0271 55.5192 27.3247 55.5192 26.8915 55.9522L19.3784 63.4642C18.9452 63.8973 18.9452 64.5996 19.3783 65.0327C19.8112 65.4658 20.5136 65.466 20.9468 65.0328L28.4598 57.5208C28.8931 57.0877 28.8931 56.3855 28.46 55.9523Z" fill="#232323"/>
<path d="M19.5874 55.9523C19.1544 55.5192 18.452 55.5192 18.0189 55.9522L10.5058 63.4642C10.0726 63.8973 10.0726 64.5996 10.5057 65.0327C10.9386 65.4658 11.641 65.466 12.0742 65.0328L19.5873 57.5208C20.0205 57.0877 20.0205 56.3855 19.5874 55.9523Z" fill="#232323"/>
<path d="M19.0481 46.5403C18.6151 46.1073 17.9127 46.1073 17.4796 46.5404L9.96764 54.0534C9.53453 54.4867 9.53453 55.1888 9.96775 55.622C10.4009 56.0552 11.1031 56.0552 11.5362 55.6219L19.0482 48.1089C19.4813 47.6757 19.4813 46.9735 19.0481 46.5403Z" fill="#232323"/>
<path d="M44.145 30.8554C43.7118 30.4223 43.0098 30.4223 42.5764 30.8554L41.0082 32.4237C40.5751 32.8568 40.5751 33.5591 41.0082 33.9923C41.4414 34.4254 42.1436 34.4254 42.5768 33.9923L44.145 32.424C44.5781 31.9909 44.5781 31.2887 44.145 30.8554Z" fill="#4DAE18"/>
</svg>
