<svg width="75" height="75" viewBox="0 0 75 75" fill="none" xmlns="http://www.w3.org/2000/svg">
<path d="M22.3425 45.9935C22.9728 45.6299 23.1886 44.8229 22.825 44.1926C22.4609 43.5628 21.6544 43.3465 21.0241 43.71C20.3938 44.0741 20.1775 44.8811 20.5416 45.511C20.9051 46.1413 21.7121 46.3576 22.3425 45.9935V45.9935Z" fill="#232323"/>
<path d="M16.9398 55.0928L23.579 66.5929C25.0117 69.0772 28.2345 69.9969 30.7831 68.5235C33.305 67.0661 34.1717 63.8439 32.7128 61.3199L28.7577 54.4686L32.1828 52.4911C32.8132 52.1264 33.0295 51.3205 32.6654 50.6901L30.951 47.7207C31.1555 47.6811 32.4996 47.4174 56.2028 42.7676C59.133 42.6085 60.8886 39.4037 59.4085 36.8417L55.027 29.2529L57.827 25.012C58.102 24.5949 58.1185 24.0588 57.8687 23.6262L55.232 19.0593C54.9822 18.6267 54.5079 18.3733 54.011 18.4027L48.9389 18.707L44.0749 10.2819C43.3704 9.06138 42.1081 8.32238 40.6991 8.30487C40.6822 8.30435 40.6657 8.30435 40.6487 8.30435C39.2871 8.30435 38.0511 8.98207 37.3188 10.1279L20.0967 32.0673L8.9004 38.5314C4.49677 41.0728 2.97138 46.7222 5.52262 51.1377C7.85344 55.1751 12.7674 56.7634 16.9398 55.0928V55.0928ZM30.4298 62.6388C31.158 63.8985 30.727 65.5104 29.4637 66.2401C28.1964 66.9729 26.5824 66.5228 25.8624 65.275L19.2706 53.8563L23.8375 51.2196C31.4665 64.4351 30.3073 62.4272 30.4298 62.6388V62.6388ZM27.4393 52.1846L26.121 49.9012L28.4044 48.5828L29.7228 50.8663L27.4393 52.1846ZM53.3559 21.0832L55.1779 24.239L53.5532 26.6996L50.4128 21.2598L53.3559 21.0832ZM39.524 11.5735C39.8777 10.9946 40.4391 10.9349 40.6667 10.9411C40.8918 10.9436 41.4526 11.0137 41.7909 11.5997L57.1251 38.1601C57.6246 39.0247 57.0175 40.1119 56.0158 40.1366C55.8361 40.1407 55.7532 40.1731 55.2928 40.2591L39.0723 12.1642C39.4127 11.7264 39.4565 11.6842 39.524 11.5735V11.5735ZM37.3178 14.3992L52.5577 40.7958L29.5575 45.307L22.564 33.1941L37.3178 14.3992ZM7.80606 49.8193C7.22722 48.8177 6.92131 47.6806 6.92131 46.5301C6.92131 44.1787 8.18509 41.989 10.2188 40.8148L20.4942 34.8822L27.086 46.2994L16.8106 52.2325C13.6625 54.0494 9.62344 52.9669 7.80606 49.8193V49.8193Z" fill="#232323"/>
<path d="M18.2581 46.8293C17.894 46.199 17.0875 45.9827 16.4572 46.3468L14.1738 47.6651C13.5444 48.0287 12.7364 47.8119 12.3729 47.1826C12.0088 46.5522 11.2023 46.336 10.572 46.7C9.94162 47.0641 9.72532 47.8706 10.0894 48.5009C11.1745 50.3806 13.5949 51.0434 15.4921 49.9486L17.7756 48.6302C18.4059 48.2661 18.6222 47.4602 18.2581 46.8293V46.8293Z" fill="#232323"/>
<path d="M69.826 11.1244L62.4798 15.2124C61.8438 15.5667 61.6146 16.3695 61.9689 17.0056C62.3222 17.641 63.1246 17.8712 63.7621 17.5164L71.1078 13.4285C71.7444 13.0742 71.973 12.2713 71.6187 11.6353C71.2649 10.9988 70.4621 10.7701 69.826 11.1244V11.1244Z" fill="#4DAE18"/>
<path d="M69.0557 24.7787L63.962 23.414C63.2585 23.2255 62.5355 23.6426 62.347 24.3461C62.1585 25.0496 62.5762 25.7721 63.2796 25.9606L68.3739 27.3253C69.0815 27.5153 69.8009 27.0915 69.9884 26.3932C70.1768 25.6897 69.7592 24.9667 69.0557 24.7787Z" fill="#4DAE18"/>
<path d="M56.2555 6.33455L54.8893 11.4288C54.7008 12.1322 55.1179 12.8548 55.8214 13.0438C56.5243 13.2317 57.2474 12.8156 57.4364 12.1116L58.8021 7.01742C58.9906 6.31395 58.5735 5.59091 57.87 5.40243C57.167 5.21394 56.444 5.63108 56.2555 6.33455V6.33455Z" fill="#4DAE18"/>
</svg>
