<svg width="75" height="75" viewBox="0 0 75 75" fill="none" xmlns="http://www.w3.org/2000/svg">
<path d="M38.4843 17.7353C38.0364 16.7941 36.6534 16.7944 36.2056 17.7353L22.2955 46.1978C22.155 46.4854 22.1284 46.8155 22.2211 47.1219L26.4744 61.1827C24.6818 61.8443 23.4001 63.5701 23.4001 65.5897V69.0172C23.4001 69.7176 23.9678 70.2853 24.6682 70.2853L50.0219 70.2857C50.3582 70.2857 50.6808 70.1521 50.9185 69.9143C51.1563 69.6765 51.29 69.3539 51.29 69.0176V65.5901C51.29 63.5706 50.0083 61.8447 48.2158 61.1831L52.4693 47.122C52.562 46.8156 52.5354 46.4855 52.3949 46.1979L38.4843 17.7353ZM37.3451 45.9227C38.394 45.9227 39.2473 46.7761 39.2473 47.8249C39.1428 50.3485 35.5469 50.3476 35.4428 47.8249C35.443 46.7761 36.2963 45.9227 37.3451 45.9227ZM48.7537 67.7495L25.9363 67.7491V65.5897C25.9363 64.4044 26.8963 63.4392 28.0796 63.4306C28.0928 63.4307 28.106 63.4307 28.1191 63.4305L46.5684 63.4309C46.5835 63.4312 46.5985 63.4312 46.6136 63.431C47.7955 63.4413 48.7537 64.4059 48.7537 65.5901V67.7495ZM45.6533 60.8947L29.0369 60.8944L24.7928 46.8642L36.0771 23.7746V43.5711C34.2457 44.1181 32.9068 45.8181 32.9068 47.825C33.1507 53.7133 41.5409 53.7114 41.7838 47.825C41.7838 45.8181 40.445 44.1181 38.6135 43.5711V23.7757L49.8976 46.8646L45.6533 60.8947Z" fill="#232323"/>
<path d="M60.1713 5.99121C58.518 5.99121 57.1076 7.05136 56.5843 8.52746H41.7835V6.62527C41.7835 5.92489 41.2157 5.35715 40.5153 5.35715H34.1747C33.4743 5.35715 32.9066 5.92489 32.9066 6.62527V8.52746H18.1059C16.6361 4.5562 10.7953 5.50729 10.7144 9.79559C10.7956 14.0845 16.6368 15.0343 18.1058 11.0637H32.9066V12.9659C32.9066 13.6663 33.4743 14.234 34.1747 14.234H40.5153C41.2157 14.234 41.7835 13.6663 41.7835 12.9659V11.0637H56.5843C58.0545 15.0355 63.8948 14.0834 63.9757 9.79559C63.9757 7.69786 62.269 5.99121 60.1713 5.99121ZM14.5187 11.0637C13.8195 11.0637 13.2506 10.4948 13.2506 9.79559C13.3202 8.11317 15.7175 8.11367 15.7869 9.79559C15.7869 10.4948 15.2181 11.0637 14.5187 11.0637ZM39.2472 11.6978H35.4428V7.8934H39.2472V11.6978ZM60.1713 11.0637C59.4721 11.0637 58.9032 10.4948 58.9032 9.79559C58.9728 8.11317 61.3701 8.11367 61.4394 9.79559C61.4394 10.4948 60.8705 11.0637 60.1713 11.0637Z" fill="#4DAE18"/>
</svg>
